<svg width="118" height="30" viewBox="0 0 118 30" fill="none" xmlns="http://www.w3.org/2000/svg">
<g clip-path="url(#clip0_332_3356)">
<path d="M39.5895 10.5652L35.7461 19.3721H37.3421L38.1837 17.3156H41.6562L42.4979 19.3721H44.0938L40.213 10.5652H39.5895ZM38.7199 16.0126L39.9013 13.1241H39.9262L41.1201 16.0126H38.7199Z" fill="#3C3C50"/>
<path d="M50.9929 16.3266H50.9648L45.7186 10.5652H45.0547V19.3721H46.5634L46.5509 13.5479H46.5759L51.8844 19.438H52.4735V10.628H50.9648L50.9929 16.3266Z" fill="#3C3C50"/>
<path d="M58.4758 16.0942H60.5176V17.7268C59.9313 17.998 59.2924 18.1342 58.6473 18.1256C56.911 18.1256 55.5831 16.8917 55.5831 14.9858C55.5831 13.08 56.8985 11.8744 58.7003 11.8744C59.707 11.8634 60.6879 12.1953 61.4839 12.8163L61.3187 11.1052C60.5076 10.6777 59.6031 10.4618 58.6878 10.4772C55.9821 10.4772 53.9902 12.361 53.9902 14.967C53.9902 17.573 55.9229 19.5008 58.6036 19.5008C59.7337 19.528 60.8485 19.2343 61.8205 18.653V14.7818H58.7595L58.4758 16.0942Z" fill="#3C3C50"/>
<path d="M65.1477 10.6279H63.6172V19.372H65.1477V10.6279Z" fill="#3C3C50"/>
<path d="M71.0995 10.4993C70.5109 10.4885 69.9261 10.5978 69.3805 10.8206C68.8349 11.0434 68.3397 11.3751 67.9247 11.7958C67.5098 12.2164 67.1836 12.7173 66.9658 13.2682C66.748 13.8192 66.6432 14.4088 66.6576 15.0016C66.6576 16.1866 67.1249 17.323 67.9567 18.1608C68.7886 18.9987 69.9168 19.4694 71.0933 19.4694C72.2697 19.4694 73.3979 18.9987 74.2298 18.1608C75.0617 17.323 75.529 16.1866 75.529 15.0016C75.5433 14.4099 75.4389 13.8213 75.2219 13.2712C75.0048 12.7211 74.6798 12.2208 74.2661 11.8004C73.8525 11.3799 73.3588 11.0479 72.8146 10.8244C72.2705 10.6008 71.6871 10.4902 71.0995 10.4993ZM71.0995 18.1005C69.6064 18.1005 68.238 16.9545 68.238 15.0016C68.238 13.0487 69.6064 11.9027 71.0995 11.9027C72.5926 11.9027 73.933 13.0456 73.933 15.0016C73.933 16.9577 72.5926 18.1005 71.0995 18.1005Z" fill="#3C3C50"/>
<path d="M79.85 10.6311H77.0664V19.3721H78.6V16.4396H79.8469C81.8263 16.4396 82.9235 15.0895 82.9235 13.5353C82.9235 11.9812 81.8263 10.6311 79.8469 10.6311M79.6848 15.0707H78.6V12.0063H79.6848C80.7696 12.0063 81.3556 12.6342 81.3556 13.5228C81.3556 14.4113 80.7696 15.0926 79.6848 15.0926" fill="#3C3C50"/>
<path d="M89.8953 14.3202H85.684V10.6279H84.1504V19.372H85.684V15.6954H89.8953V19.372H91.4258V10.6279H89.8953V14.3202Z" fill="#3C3C50"/>
<path d="M96.2512 10.5652L92.3984 19.3721H93.9944L94.836 17.3156H98.3086L99.1502 19.3721H100.746L96.8778 10.5652H96.2512ZM95.3847 16.0126L96.5723 13.1209H96.5972L97.7724 16.0126H95.3847Z" fill="#3C3C50"/>
<path d="M107.542 13.3155C107.542 11.8493 106.494 10.6279 104.49 10.6279H101.719V19.372H103.252V16.0816H104.424L106.775 19.372H108.614L105.946 15.7582C106.422 15.5561 106.828 15.216 107.112 14.7811C107.396 14.3462 107.546 13.8361 107.542 13.3155ZM104.375 14.7818H103.252V12.0063H104.4C105.319 12.0063 105.958 12.4804 105.958 13.4066C105.958 14.3328 105.335 14.7818 104.375 14.7818Z" fill="#3C3C50"/>
<path d="M117.361 10.5526L113.839 14.898H113.814L110.189 10.5526H109.537V19.3721H111.03V13.7677L113.686 16.8917H113.904L116.482 13.7802V19.3721H118V10.5526H117.361Z" fill="#3C3C50"/>
<path d="M13.441 4.61536L10.9473 25.0235H13.1293L13.6124 20.3579H16.1062L16.6548 25.0235H18.8368L16.209 4.61536H13.441ZM13.7527 18.3265L14.7346 9.28412H14.8811L15.9503 18.3265H13.7527Z" fill="#3C3C50"/>
<path d="M14.8938 0C11.9481 0 9.06851 0.879826 6.61925 2.52822C4.16998 4.17661 2.261 6.51954 1.13373 9.26072C0.00645318 12.0019 -0.288493 15.0182 0.286187 17.9282C0.860866 20.8382 2.27936 23.5113 4.36229 25.6093C6.44523 27.7073 9.09904 29.136 11.9882 29.7149C14.8773 30.2937 17.8719 29.9966 20.5934 28.8612C23.3149 27.7258 25.641 25.803 27.2775 23.336C28.9141 20.869 29.7876 17.9686 29.7876 15.0016C29.7834 11.0242 28.213 7.21089 25.4207 4.39845C22.6285 1.58601 18.8426 0.00415567 14.8938 0ZM14.8938 28.8571C12.1724 28.8571 9.51204 28.0443 7.2493 26.5213C4.98655 24.9984 3.22301 22.8337 2.18171 20.3012C1.1404 17.7687 0.868107 14.982 1.39926 12.2936C1.93041 9.60516 3.24115 7.13578 5.16571 5.19773C7.09027 3.25968 9.54221 1.94001 12.2114 1.40563C14.8806 0.871239 17.6472 1.14614 20.1613 2.19555C22.6754 3.24496 24.8241 5.02176 26.3356 7.30123C27.8471 9.58069 28.6535 12.2604 28.6529 15.0016C28.6488 18.6756 27.1978 22.1978 24.6182 24.7955C22.0387 27.3931 18.5414 28.8538 14.8938 28.8571Z" fill="#3C3C50"/>
</g>
<defs>
<clipPath id="clip0_332_3356">
<rect width="118" height="30" fill="white"/>
</clipPath>
</defs>
</svg>
