<svg width="212" height="54" viewBox="0 0 212 54" fill="none" xmlns="http://www.w3.org/2000/svg">
<g clip-path="url(#clip0_332_5803)">
<path d="M71.1239 19.0171L64.2188 34.8695H67.0861L68.5982 31.1678H74.837L76.349 34.8695H79.2164L72.244 19.0171H71.1239ZM69.5615 28.8224L71.684 23.6231H71.7288L73.8737 28.8224H69.5615Z" fill="white"/>
<path d="M91.6159 29.3873H91.5655L82.1401 19.0168H80.9473V34.8693H83.6578L83.6354 24.3858H83.6802L93.2176 34.988H94.276V19.1299H91.5655L91.6159 29.3873Z" fill="white"/>
<path d="M105.057 28.9696H108.725V31.9084C107.672 32.3965 106.524 32.6417 105.365 32.6261C102.246 32.6261 99.8598 30.4051 99.8598 26.9746C99.8598 23.5441 102.223 21.374 105.46 21.374C107.269 21.3542 109.031 21.9517 110.461 23.0694L110.164 19.9894C108.707 19.2199 107.082 18.8313 105.438 18.8591C100.577 18.8591 96.998 22.25 96.998 26.9407C96.998 31.6314 100.47 35.1014 105.287 35.1014C107.317 35.1505 109.32 34.6217 111.066 33.5755V26.6073H105.567L105.057 28.9696Z" fill="white"/>
<path d="M117.045 19.1304H114.295V34.8698H117.045V19.1304Z" fill="white"/>
<path d="M127.737 18.8988C126.679 18.8794 125.629 19.0762 124.648 19.4772C123.668 19.8783 122.778 20.4754 122.033 21.2325C121.287 21.9896 120.701 22.8912 120.31 23.8829C119.919 24.8746 119.73 25.9359 119.756 27.003C119.756 29.1359 120.596 31.1814 122.09 32.6896C123.585 34.1978 125.612 35.0451 127.726 35.0451C129.839 35.0451 131.866 34.1978 133.361 32.6896C134.855 31.1814 135.695 29.1359 135.695 27.003C135.721 25.9379 135.533 24.8784 135.143 23.8883C134.753 22.8981 134.169 21.9976 133.426 21.2408C132.683 20.4839 131.796 19.8864 130.818 19.484C129.84 19.0815 128.792 18.8825 127.737 18.8988ZM127.737 32.581C125.054 32.581 122.596 30.5182 122.596 27.003C122.596 23.4878 125.054 21.425 127.737 21.425C130.419 21.425 132.827 23.4821 132.827 27.003C132.827 30.5239 130.419 32.581 127.737 32.581Z" fill="white"/>
<path d="M143.458 19.136H138.457V34.8697H141.212V29.5912H143.453C147.009 29.5912 148.98 27.1611 148.98 24.3636C148.98 21.5661 147.009 19.136 143.453 19.136M143.161 27.1272H141.212V21.6113H143.161C145.11 21.6113 146.163 22.7416 146.163 24.341C146.163 25.9404 145.11 27.1668 143.161 27.1668" fill="white"/>
<path d="M161.507 25.7765H153.941V19.1304H151.186V34.8698H153.941V28.2519H161.507V34.8698H164.257V19.1304H161.507V25.7765Z" fill="white"/>
<path d="M172.926 19.0168L166.004 34.8693H168.871L170.383 31.1676H176.622L178.134 34.8693H181.002L174.052 19.0168H172.926ZM171.369 28.8222L173.503 23.6172H173.548L175.659 28.8222H171.369Z" fill="white"/>
<path d="M193.211 23.968C193.211 21.3288 191.33 19.1304 187.729 19.1304H182.75V34.8698H185.505V28.947H187.611L191.834 34.8698H195.138L190.344 28.3649C191.2 28.0011 191.929 27.3889 192.44 26.6061C192.95 25.8233 193.219 24.9051 193.211 23.968ZM187.521 26.6073H185.505V21.6114H187.566C189.218 21.6114 190.366 22.4648 190.366 24.1319C190.366 25.7991 189.246 26.6073 187.521 26.6073Z" fill="white"/>
<path d="M210.852 18.9946L204.523 26.8163H204.479L197.965 18.9946H196.795V34.8697H199.477V24.7818L204.249 30.405H204.641L209.272 24.8044V34.8697H212V18.9946H210.852Z" fill="white"/>
<path d="M24.1482 8.30737L19.668 45.0421H23.5882L24.4562 36.644H28.9365L29.9222 45.0421H33.8424L29.1213 8.30737H24.1482ZM24.7083 32.9874L26.4724 16.7111H26.7356L28.6565 32.9874H24.7083Z" fill="white"/>
<path d="M26.7583 0C21.466 0 16.2926 1.58369 11.8922 4.5508C7.49182 7.5179 4.06214 11.7352 2.03687 16.6693C0.0115938 21.6034 -0.51831 27.0328 0.514166 32.2708C1.54664 37.5088 4.09512 42.3203 7.83734 46.0967C11.5796 49.8731 16.3474 52.4449 21.538 53.4868C26.7286 54.5287 32.1089 53.994 36.9983 51.9502C41.8877 49.9064 46.0668 46.4454 49.0071 42.0048C51.9473 37.5642 53.5166 32.3435 53.5166 27.0028C53.5092 19.8435 50.6877 12.9796 45.6711 7.9172C40.6546 2.85481 33.8528 0.0074802 26.7583 0ZM26.7583 51.9429C21.869 51.9429 17.0894 50.4797 13.0242 47.7384C8.95889 44.997 5.79049 41.1007 3.91968 36.5422C2.04886 31.9836 1.55965 26.9676 2.51392 22.1284C3.4682 17.2893 5.82308 12.8444 9.28077 9.35591C12.7385 5.86742 17.1436 3.49202 21.9392 2.53013C26.7347 1.56823 31.7052 2.06304 36.2221 3.95199C40.7389 5.84094 44.5992 9.03917 47.3148 13.1422C50.0304 17.2452 51.4792 22.0688 51.4781 27.0028C51.4707 33.616 48.8638 39.9561 44.2293 44.6318C39.5949 49.3075 33.3116 51.9369 26.7583 51.9429Z" fill="white"/>
</g>
<defs>
<clipPath id="clip0_332_5803">
<rect width="212" height="54" fill="white"/>
</clipPath>
</defs>
</svg>
