<svg width="15" height="15" viewBox="0 0 15 15" fill="none" xmlns="http://www.w3.org/2000/svg">
<path fill-rule="evenodd" clip-rule="evenodd" d="M7.5 10C9.91625 10 11.875 8.04125 11.875 5.625C11.875 3.20875 9.91625 1.25 7.5 1.25C5.08375 1.25 3.125 3.20875 3.125 5.625C3.125 8.04125 5.08375 10 7.5 10ZM7.5 3.75C7.32246 3.75 7.20372 3.96302 6.96622 4.38907L6.90478 4.49929C6.83729 4.62036 6.80354 4.6809 6.75093 4.72084C6.69831 4.76078 6.63279 4.77561 6.50173 4.80526L6.38241 4.83226C5.92122 4.9366 5.69063 4.98878 5.63577 5.1652C5.58091 5.34162 5.73811 5.52545 6.05252 5.89311L6.13386 5.98823C6.22321 6.09271 6.26788 6.14495 6.28797 6.20957C6.30807 6.2742 6.30132 6.3439 6.28781 6.48329L6.27551 6.6102C6.22798 7.10074 6.20421 7.34601 6.34784 7.45504C6.49147 7.56408 6.70738 7.46467 7.13919 7.26585L7.2509 7.21441C7.37361 7.15791 7.43497 7.12966 7.5 7.12966C7.56504 7.12966 7.62639 7.15791 7.7491 7.21441L7.86081 7.26585C8.29262 7.46467 8.50853 7.56408 8.65216 7.45504C8.79579 7.34601 8.77202 7.10074 8.72449 6.6102L8.71219 6.48329C8.69869 6.3439 8.69193 6.2742 8.71203 6.20957C8.73212 6.14495 8.77679 6.09271 8.86614 5.98824L8.94748 5.89311C9.26189 5.52545 9.4191 5.34162 9.36423 5.1652C9.30937 4.98878 9.07878 4.9366 8.61759 4.83226L8.49827 4.80526C8.36722 4.77561 8.30169 4.76078 8.24907 4.72084C8.19646 4.6809 8.16272 4.62036 8.09523 4.49929L8.03378 4.38907C7.79629 3.96302 7.67754 3.75 7.5 3.75Z" fill="white"/>
<path d="M2.80948 8.12158L1.87003 9.09429C1.53246 9.44382 1.36368 9.61858 1.30527 9.76658C1.17217 10.1038 1.28607 10.4779 1.57586 10.6553C1.70304 10.7332 1.93242 10.7575 2.39118 10.806C2.65019 10.8334 2.77972 10.8471 2.88819 10.8886C3.13104 10.9817 3.31994 11.1773 3.40984 11.4288C3.45 11.5411 3.46323 11.6752 3.48969 11.9434C3.53655 12.4184 3.55998 12.6559 3.63517 12.7876C3.80651 13.0876 4.16782 13.2055 4.49354 13.0677C4.63648 13.0073 4.80527 12.8325 5.14284 12.483L6.69411 10.8768C5.00816 10.6202 3.58266 9.57118 2.80948 8.12158Z" fill="white"/>
<path d="M8.30589 10.8768L9.85716 12.483C10.1947 12.8325 10.3635 13.0073 10.5065 13.0677C10.8322 13.2055 11.1935 13.0876 11.3648 12.7876C11.44 12.6559 11.4634 12.4184 11.5103 11.9434C11.5368 11.6752 11.55 11.5411 11.5902 11.4288C11.6801 11.1773 11.869 10.9817 12.1118 10.8886C12.2203 10.8471 12.3498 10.8334 12.6088 10.806C13.0676 10.7575 13.297 10.7332 13.4241 10.6553C13.7139 10.4779 13.8278 10.1038 13.6947 9.76658C13.6363 9.61858 13.4675 9.44382 13.13 9.09429L12.1905 8.12158C11.4173 9.57118 9.99184 10.6202 8.30589 10.8768Z" fill="white"/>
</svg>
