<svg width="14" height="14" viewBox="0 0 14 14" fill="none" xmlns="http://www.w3.org/2000/svg">
<path fill-rule="evenodd" clip-rule="evenodd" d="M12.8346 6.99996C12.8346 10.2216 10.223 12.8333 7.0013 12.8333C3.77964 12.8333 1.16797 10.2216 1.16797 6.99996C1.16797 3.7783 3.77964 1.16663 7.0013 1.16663C10.223 1.16663 12.8346 3.7783 12.8346 6.99996ZM9.35233 5.23227C9.52318 5.40312 9.52318 5.68013 9.35233 5.85098L6.43566 8.76765C6.26481 8.93851 5.9878 8.93851 5.81694 8.76765L4.65028 7.60099C4.47942 7.43013 4.47942 7.15312 4.65028 6.98227C4.82113 6.81141 5.09814 6.81141 5.26899 6.98227L6.1263 7.83957L7.42996 6.53592L8.73361 5.23227C8.90446 5.06141 9.18147 5.06141 9.35233 5.23227Z" fill="#78B72A"/>
</svg>
