<svg width="16" height="16" viewBox="0 0 16 16" fill="none" xmlns="http://www.w3.org/2000/svg">
<path fill-rule="evenodd" clip-rule="evenodd" d="M1.16797 4.33335C1.16797 2.58445 2.58573 1.16669 4.33464 1.16669C6.08354 1.16669 7.5013 2.58445 7.5013 4.33335C7.5013 6.08226 6.08354 7.50002 4.33464 7.50002C2.58573 7.50002 1.16797 6.08226 1.16797 4.33335Z" fill="#3C3C50"/>
<path fill-rule="evenodd" clip-rule="evenodd" d="M8.5013 11.6667C8.5013 9.91779 9.91907 8.50002 11.668 8.50002C13.4169 8.50002 14.8346 9.91779 14.8346 11.6667C14.8346 13.4156 13.4169 14.8334 11.668 14.8334C9.91907 14.8334 8.5013 13.4156 8.5013 11.6667Z" fill="#3C3C50"/>
<path fill-rule="evenodd" clip-rule="evenodd" d="M14.8346 4.33335C14.8346 2.58445 13.4169 1.16669 11.668 1.16669C9.91907 1.16669 8.5013 2.58445 8.5013 4.33335C8.5013 6.08226 9.91907 7.50002 11.668 7.50002C13.4169 7.50002 14.8346 6.08226 14.8346 4.33335Z" fill="#3C3C50"/>
<path fill-rule="evenodd" clip-rule="evenodd" d="M7.5013 11.6667C7.5013 9.91779 6.08354 8.50002 4.33464 8.50002C2.58573 8.50002 1.16797 9.91779 1.16797 11.6667C1.16797 13.4156 2.58573 14.8334 4.33464 14.8334C6.08354 14.8334 7.5013 13.4156 7.5013 11.6667Z" fill="#3C3C50"/>
</svg>
