<svg width="43" height="12" viewBox="0 0 43 12" fill="none" xmlns="http://www.w3.org/2000/svg">
<path fill-rule="evenodd" clip-rule="evenodd" d="M4.00747 0.00200129C4.0262 0.00189012 4.04672 0.00154368 4.06886 0.00116979C4.50442 -0.00618446 5.56884 -0.0241571 6.03265 1.52882C6.36096 2.62811 6.88393 4.4288 7.60157 6.93089H7.89384C8.66344 4.29301 9.19212 2.49233 9.47988 1.52882C9.94287 -0.0214404 11.0588 -0.00624253 11.5999 0.0011272C11.6344 0.00159625 11.6665 0.0020336 11.696 0.0020336L15.4954 0.0020383V11.7278H11.6229V4.8176H11.3632L9.20449 11.7278H6.29092L4.13219 4.81248H3.87251V11.7278H0V0.0020383L4.00747 0.00200129ZM21.0563 0.00203833V6.91735H21.3652L23.9911 1.23094C24.5009 0.0993262 25.5873 0.00203833 25.5873 0.00203833H29.3347V11.7278H25.3813V4.81248H25.0724L22.498 10.4989C21.9882 11.6254 20.8504 11.7278 20.8504 11.7278H17.1029V0.00203833H21.0563ZM38.7987 8.23487C40.716 8.23487 42.4478 7.12455 42.9992 5.57419H30.8933V11.7278H34.6528V8.23487H38.7987Z" fill="#D8D8D8"/>
</svg>
