<svg width="16" height="16" viewBox="0 0 16 16" fill="none" xmlns="http://www.w3.org/2000/svg">
<rect width="16" height="16" rx="8" fill="#3C3C50"/>
<path d="M7.3134 3.46728C7.55912 2.84424 8.44088 2.84424 8.6866 3.46728L9.65684 5.92735C9.73186 6.11757 9.88243 6.26814 10.0727 6.34316L12.5327 7.3134C13.1558 7.55912 13.1558 8.44088 12.5327 8.6866L10.0727 9.65684C9.88243 9.73186 9.73186 9.88243 9.65684 10.0727L8.6866 12.5327C8.44088 13.1558 7.55912 13.1558 7.3134 12.5327L6.34316 10.0727C6.26814 9.88243 6.11757 9.73186 5.92735 9.65684L3.46728 8.6866C2.84424 8.44088 2.84424 7.55912 3.46728 7.3134L5.92735 6.34316C6.11757 6.26814 6.26814 6.11757 6.34316 5.92735L7.3134 3.46728Z" fill="white"/>
</svg>
