<svg width="23" height="23" viewBox="0 0 23 23" fill="none" xmlns="http://www.w3.org/2000/svg">
<g clip-path="url(#clip0_332_5791)">
<mask id="mask0_332_5791" style="mask-type:luminance" maskUnits="userSpaceOnUse" x="0" y="0" width="23" height="23">
<path d="M14.5912 0H14.5498H12.3579H8.4088C1.4835 0 0 1.4858 0 8.4088V14.5912C0 21.5165 1.4858 23 8.4088 23H12.3579H14.5498H14.5912C21.5165 23 23 21.5142 23 14.5912V8.4088C23 1.4835 21.5142 0 14.5912 0Z" fill="white"/>
</mask>
<g mask="url(#mask0_332_5791)">
<rect width="23" height="23" fill="#3C3C50"/>
</g>
<path fill-rule="evenodd" clip-rule="evenodd" d="M11.7793 7.08751C9.49263 6.9676 7.70816 8.55433 7.31466 11.0378C6.98879 13.0945 7.56655 15.6005 8.06074 15.7267C8.27034 15.7802 8.77475 15.3944 9.14172 15.0483C9.21072 14.9832 9.31504 14.9723 9.39595 15.0218C9.96801 15.3716 10.6157 15.6344 11.3297 15.6719C13.6773 15.795 15.7577 13.9577 15.8806 11.6099C16.0036 9.26214 14.1269 7.21062 11.7793 7.08751ZM7.95008 19.0104C7.86154 18.9477 7.73956 18.9647 7.66536 19.0439C6.67361 20.1016 4.13546 20.8436 4.01919 19.3999C4.01919 18.2688 3.76513 17.3156 3.4854 16.2661C3.14281 14.9808 2.76172 13.551 2.76172 11.4729C2.76172 6.51764 6.82569 2.79102 11.6442 2.79102C16.4627 2.79102 20.2406 6.69959 20.2406 11.5211C20.2406 16.3425 16.3424 20.1549 11.6898 20.1549C10.0391 20.1549 9.23812 19.9224 7.95008 19.0104Z" fill="white"/>
</g>
<defs>
<clipPath id="clip0_332_5791">
<rect width="23" height="23" fill="white"/>
</clipPath>
</defs>
</svg>
