<svg width="13" height="13" viewBox="0 0 13 13" fill="none" xmlns="http://www.w3.org/2000/svg">
<path fill-rule="evenodd" clip-rule="evenodd" d="M6.73736 11.495C6.65879 11.5203 6.57287 11.5142 6.49988 11.479C6.41997 11.4405 6.36716 11.3733 6.34819 11.3002L6.09051 10.3068C6.0004 9.95943 5.8692 9.62437 5.70022 9.30803C5.43788 8.81691 5.04093 8.43919 4.67267 8.12185L3.89336 7.4503C3.77257 7.34622 3.70901 7.1902 3.72278 7.03097L4.1627 1.94327C4.18492 1.68624 4.39965 1.48961 4.65635 1.48961H7.17436C8.87319 1.48961 10.3046 2.67166 10.5791 4.25907L10.9612 6.46894C11.0138 6.77307 10.7799 7.05025 10.473 7.05025H7.66658C7.13731 7.05025 6.73529 7.52509 6.82075 8.04663L7.17969 10.2374C7.22886 10.5375 7.21482 10.8446 7.13847 11.1389C7.09972 11.2883 6.98186 11.4165 6.81589 11.4698L6.73736 11.495L6.86161 11.8818L6.73736 11.495ZM6.14717 12.211C6.40857 12.3369 6.70976 12.3573 6.98587 12.2686L7.06439 12.2434L6.94014 11.8566L7.06439 12.2434C7.48527 12.1082 7.81365 11.772 7.92494 11.343C8.0297 10.9391 8.04896 10.5178 7.9815 10.1061L7.62255 7.91526C7.61796 7.88723 7.63956 7.86275 7.66658 7.86275H10.473C11.2851 7.86275 11.9002 7.13024 11.7619 6.33048L11.3797 4.12061C11.0342 2.12279 9.24692 0.677106 7.17436 0.677106H4.65635C3.97729 0.677106 3.4117 1.19697 3.35322 1.87328L2.9133 6.96097C2.87706 7.38007 3.04429 7.79119 3.36296 8.0658L4.14228 8.73735C4.49719 9.04319 4.79594 9.33962 4.98356 9.69085C5.12253 9.95102 5.23019 10.2261 5.30404 10.5108L5.56172 11.5042C5.64255 11.8158 5.85901 12.0721 6.14717 12.211ZM1.60749 7.86237C1.82484 7.87175 2.011 7.70824 2.02974 7.49149L2.55602 1.40505C2.58983 1.01407 2.28187 0.677106 1.88863 0.677106C1.51823 0.677106 1.21875 0.977591 1.21875 1.34729V7.4565C1.21875 7.67405 1.39013 7.85299 1.60749 7.86237Z" fill="#BABABA"/>
</svg>
