<svg width="13" height="13" viewBox="0 0 13 13" fill="none" xmlns="http://www.w3.org/2000/svg">
<path fill-rule="evenodd" clip-rule="evenodd" d="M6.73736 1.50495C6.65879 1.47971 6.57287 1.48583 6.49988 1.521C6.41997 1.55951 6.36716 1.62671 6.34819 1.69984L6.09051 2.69318C6.0004 3.04057 5.8692 3.37563 5.70022 3.69197C5.43788 4.18309 5.04093 4.56081 4.67267 4.87815L3.89336 5.5497C3.77257 5.65378 3.70901 5.8098 3.72278 5.96903L4.1627 11.0567C4.18492 11.3138 4.39965 11.5104 4.65635 11.5104H7.17436C8.87319 11.5104 10.3046 10.3283 10.5791 8.74093L10.9612 6.53106C11.0138 6.22693 10.7799 5.94975 10.473 5.94975H7.66658C7.13731 5.94975 6.73529 5.47491 6.82075 4.95337L7.17969 2.76256C7.22886 2.46247 7.21482 2.1554 7.13847 1.86106C7.09972 1.71169 6.98186 1.5835 6.81589 1.53018L6.73736 1.50495L6.86161 1.11817L6.73736 1.50495ZM6.14717 0.789049C6.40857 0.663086 6.70976 0.642691 6.98587 0.731389L7.06439 0.756615L6.94014 1.1434L7.06439 0.756615C7.48527 0.891822 7.81365 1.22804 7.92494 1.65705C8.0297 2.0609 8.04896 2.4822 7.9815 2.89393L7.62255 5.08474C7.61796 5.11277 7.63956 5.13725 7.66658 5.13725H10.473C11.2851 5.13725 11.9002 5.86976 11.7619 6.66952L11.3797 8.87939C11.0342 10.8772 9.24692 12.3229 7.17436 12.3229H4.65635C3.97729 12.3229 3.4117 11.803 3.35322 11.1267L2.9133 6.03903C2.87706 5.61993 3.04429 5.20881 3.36296 4.9342L4.14228 4.26265C4.49719 3.95681 4.79594 3.66038 4.98356 3.30915C5.12253 3.04898 5.23019 2.77389 5.30404 2.48917L5.56172 1.49583C5.64255 1.18421 5.85901 0.927905 6.14717 0.789049ZM1.60749 5.13763C1.82484 5.12825 2.011 5.29176 2.02974 5.50851L2.55602 11.595C2.58983 11.9859 2.28187 12.3229 1.88863 12.3229C1.51823 12.3229 1.21875 12.0224 1.21875 11.6527V5.5435C1.21875 5.32595 1.39013 5.14701 1.60749 5.13763Z" fill="#BABABA"/>
</svg>
