<svg width="11" height="13" viewBox="0 0 11 13" fill="none" xmlns="http://www.w3.org/2000/svg">
<path d="M10.4944 0.535764C9.80436 0.281138 8.70988 0 7.35657 0C3.90173 0 1.46886 1.71352 1.45394 4.16334C1.42525 5.97081 3.1958 6.97472 4.52004 7.57739C5.87355 8.19322 6.33364 8.59518 6.33364 9.14411C6.31987 9.98717 5.23993 10.3758 4.23269 10.3758C2.83595 10.3758 2.08756 10.1754 0.950228 9.70638L0.489558 9.50532L0 12.3302C0.820521 12.6779 2.33224 12.9864 3.90173 13C7.57255 13 9.96238 11.313 9.99069 8.70229C10.0047 7.26973 9.06973 6.17205 7.05411 5.27508C5.8305 4.69928 5.08115 4.31102 5.08115 3.72188C5.09549 3.18629 5.71495 2.63772 7.0962 2.63772C8.23352 2.61085 9.06916 2.86512 9.7022 3.11957L10.0186 3.2532L10.4944 0.535764Z" fill="#D8D8D8"/>
</svg>
