<svg width="51" height="21" viewBox="0 0 51 21" fill="none" xmlns="http://www.w3.org/2000/svg">
<g clip-path="url(#clip0_332_5852)">
<path d="M17.6201 5.81466L10.046 10.1994L17.6201 14.5851L7.57905 20.3998V11.6244L7.57707 11.6234L0 16.0121V4.38771L7.57905 8.77246V0L17.6201 5.81466ZM29.769 15.7716C29.8809 15.7716 29.9878 15.7922 30.0896 15.833C30.1915 15.8739 30.2783 15.9307 30.3548 16.0022C30.4312 16.0737 30.488 16.1603 30.5339 16.2624C30.5798 16.3647 30.6002 16.4774 30.6002 16.5949C30.6002 16.6767 30.5947 16.7484 30.5794 16.8097H29.2079C29.2232 16.9784 29.2847 17.1115 29.3969 17.2035C29.5091 17.2955 29.657 17.347 29.8303 17.347C29.9474 17.347 30.0543 17.3314 30.146 17.2906C30.2428 17.2548 30.3195 17.2091 30.3756 17.158L30.4725 17.4084C30.3859 17.4901 30.279 17.5466 30.1618 17.5875C30.0395 17.6284 29.9218 17.6439 29.8046 17.6439C29.6567 17.6439 29.529 17.6226 29.4117 17.5766C29.2945 17.5306 29.1925 17.4694 29.1109 17.3876C29.0294 17.3059 28.9628 17.2091 28.917 17.0917C28.8711 16.9741 28.8507 16.8458 28.8507 16.7077C28.8507 16.5799 28.8712 16.4572 28.912 16.3396C28.9528 16.2272 29.0137 16.1246 29.0901 16.0428C29.1666 15.961 29.264 15.895 29.3761 15.8439C29.4883 15.7927 29.6211 15.7716 29.769 15.7716ZM34.3536 15.7716C34.4658 15.7716 34.5732 15.7921 34.6752 15.833C34.7772 15.8739 34.8639 15.9306 34.9404 16.0022C35.0167 16.0737 35.0727 16.1604 35.1185 16.2624C35.1644 16.3647 35.1848 16.4774 35.1848 16.5949C35.1848 16.6766 35.1803 16.7484 35.165 16.8097H33.7925C33.8078 16.9784 33.8693 17.1115 33.9815 17.2035C34.0937 17.2956 34.2416 17.347 34.415 17.347C34.5321 17.347 34.6389 17.3314 34.7306 17.2906C34.8273 17.2549 34.9041 17.209 34.9602 17.158L35.0572 17.4084C34.9705 17.4901 34.8637 17.5466 34.7465 17.5875C34.6241 17.6284 34.5065 17.6439 34.3892 17.6439C34.2414 17.6439 34.1136 17.6226 33.9964 17.5766C33.8793 17.5306 33.777 17.4693 33.6955 17.3876C33.6141 17.3059 33.5474 17.2091 33.5016 17.0917C33.4557 16.9741 33.4353 16.8458 33.4353 16.7077C33.4353 16.58 33.4559 16.4572 33.4966 16.3396C33.5374 16.2271 33.5993 16.1246 33.6758 16.0428C33.7521 15.9611 33.8488 15.8949 33.9607 15.8439C34.0729 15.7927 34.2057 15.7716 34.3536 15.7716ZM24.8726 17.5974H24.5569V16.1298H23.9296L23.9088 16.4317C23.8884 16.6872 23.8577 16.8916 23.8118 17.0501C23.7711 17.2085 23.7205 17.3264 23.6594 17.4133C23.5982 17.5002 23.5261 17.557 23.4496 17.5825C23.3681 17.6131 23.2862 17.628 23.1894 17.628L23.1646 17.3163C23.2002 17.3213 23.2357 17.311 23.2814 17.2906C23.3272 17.2702 23.3682 17.2294 23.414 17.158C23.4548 17.0915 23.4961 16.9939 23.5318 16.8661C23.5674 16.7383 23.5879 16.5748 23.5981 16.3654L23.6287 15.8072H24.8726V17.5974ZM26.0561 15.7716C26.3109 15.7717 26.4845 15.8329 26.5865 15.9606C26.6885 16.0884 26.7389 16.2678 26.7389 16.5029V17.6023H26.444V17.3727C26.393 17.4392 26.3211 17.5007 26.2293 17.5518C26.1375 17.6029 26.0199 17.628 25.8721 17.628C25.709 17.628 25.5762 17.5817 25.4743 17.4846C25.3725 17.3874 25.3219 17.2495 25.3219 17.0759C25.3219 16.9839 25.3367 16.9071 25.3723 16.8305C25.408 16.7589 25.4546 16.6974 25.5158 16.6513C25.5769 16.6055 25.6482 16.57 25.7296 16.5445C25.8111 16.5189 25.9029 16.5079 25.9997 16.5079C26.066 16.5079 26.1426 16.5183 26.2293 16.5336C26.3109 16.5489 26.3828 16.5796 26.444 16.6256C26.444 16.544 26.4384 16.4675 26.4282 16.396C26.418 16.3244 26.4024 16.2681 26.3718 16.2169C26.3463 16.1659 26.301 16.1298 26.2501 16.0992C26.194 16.0736 26.1221 16.0586 26.0354 16.0586C25.9233 16.0586 25.8316 16.0687 25.7603 16.0942C25.6889 16.1198 25.6169 16.1505 25.5455 16.1863L25.4594 15.9359C25.541 15.8848 25.6275 15.8437 25.7345 15.8181C25.8365 15.7875 25.9439 15.7716 26.0561 15.7716ZM22.7559 17.6023H22.4403V16.1091H21.4656V17.6023H21.1499V15.8132H22.7559V17.6023ZM28.6775 16.1298H28.0194V17.6023H27.7038V16.1298H27.0506V15.8132H28.6775V16.1298ZM31.7679 16.6771L31.1098 17.6023H30.7229L31.4106 16.6771L30.7526 15.8132H31.1563L31.7679 16.6771ZM32.1607 17.6023H31.8441V15.8132H32.1607V17.6023ZM32.5991 16.6771L33.2977 17.6023H32.9049L32.2419 16.6771L32.8594 15.8132H33.2522L32.5991 16.6771ZM35.93 17.1471L36.9651 15.8132H37.2807V17.6023H36.9651V16.2674L35.93 17.6023H35.6133V15.8132H35.93V17.1471ZM26.0403 16.7741C25.9945 16.7741 25.9436 16.7795 25.8978 16.7948C25.8519 16.8051 25.8108 16.8249 25.7751 16.8453C25.7396 16.8708 25.7094 16.9017 25.689 16.9373C25.6686 16.9731 25.6583 17.0198 25.6583 17.0709C25.6584 17.1578 25.6834 17.2246 25.7395 17.2758C25.7956 17.3218 25.878 17.347 25.9799 17.347C26.097 17.3469 26.1885 17.3209 26.2649 17.2698C26.3363 17.2187 26.3982 17.1676 26.444 17.1164V16.8918C26.3318 16.81 26.1984 16.7741 26.0403 16.7741ZM29.7482 16.0734C29.5851 16.0735 29.4522 16.1192 29.3553 16.206C29.2584 16.2981 29.1975 16.4113 29.1822 16.5494H30.2687C30.2585 16.4011 30.2121 16.2831 30.1203 16.1961C30.0285 16.1145 29.9061 16.0734 29.7482 16.0734ZM34.3328 16.0734C34.1701 16.0735 34.0377 16.1194 33.941 16.206C33.8441 16.2981 33.7821 16.4113 33.7668 16.5494H34.8533C34.8431 16.4012 34.7976 16.2831 34.7059 16.1961C34.6141 16.1143 34.4909 16.0734 34.3328 16.0734ZM10.0421 16.12L12.6941 14.5851L10.0421 13.0493V16.12ZM36.1645 14.8969C36.1798 15.1065 36.2816 15.2145 36.4703 15.2145C36.6487 15.2145 36.7459 15.1116 36.7612 14.8969H37.0571C37.0571 14.9787 37.041 15.051 37.0155 15.1175C36.9901 15.1837 36.9495 15.2448 36.8988 15.2907C36.8478 15.3418 36.7861 15.3778 36.7147 15.4085C36.6434 15.4391 36.562 15.455 36.4703 15.455C36.3734 15.455 36.2865 15.4391 36.21 15.4085C36.1336 15.3778 36.072 15.3418 36.021 15.2907C35.9703 15.2397 35.9347 15.1837 35.9042 15.1175C35.8787 15.051 35.8637 14.9736 35.8637 14.8969H36.1645ZM45.5376 12.0637C45.6651 12.0637 45.778 12.085 45.88 12.131C45.9818 12.177 46.069 12.2383 46.1403 12.32C46.2115 12.4017 46.2669 12.4938 46.3026 12.606C46.3433 12.7185 46.3589 12.8413 46.359 12.9741C46.359 13.1071 46.3386 13.2355 46.2927 13.3531C46.2468 13.4706 46.1852 13.573 46.1037 13.6599C46.0222 13.7466 45.9258 13.8137 45.8088 13.8647C45.6966 13.9159 45.5686 13.936 45.4258 13.936C45.329 13.936 45.2373 13.9257 45.1507 13.9053C45.0641 13.8849 44.9874 13.8541 44.9211 13.8133V14.693H44.6045V12.1053H44.931V12.3151C44.9922 12.2435 45.0792 12.182 45.1863 12.136C45.2984 12.09 45.4154 12.0638 45.5376 12.0637ZM21.9356 12.0697C22.078 12.0697 22.2104 12.0894 22.3275 12.1251C22.4499 12.1609 22.5526 12.2224 22.6342 12.3042L22.4858 12.5546C22.4095 12.4883 22.3279 12.4376 22.2414 12.4121C22.1548 12.3865 22.068 12.3705 21.9712 12.3705C21.8897 12.3705 21.813 12.3864 21.7416 12.417C21.6652 12.4477 21.6039 12.4885 21.5427 12.5447C21.4866 12.6009 21.4407 12.6678 21.4101 12.7446C21.3796 12.8212 21.3587 12.9078 21.3587 13.0048C21.3587 13.102 21.3744 13.1892 21.4101 13.271C21.4458 13.3477 21.4916 13.4147 21.5477 13.4709C21.6038 13.527 21.6752 13.5679 21.7515 13.5985C21.828 13.6292 21.9152 13.6441 22.0019 13.6441C22.1088 13.644 22.2053 13.6235 22.2918 13.5827C22.3785 13.5418 22.4503 13.486 22.5115 13.4145L22.6748 13.6391C22.5983 13.7363 22.4962 13.8136 22.3789 13.8647C22.2566 13.9159 22.1287 13.9409 21.991 13.9409C21.8485 13.9409 21.7212 13.9205 21.6041 13.8746C21.4868 13.8286 21.3839 13.7675 21.3023 13.6856C21.2156 13.6038 21.1544 13.5064 21.1034 13.3888C21.0575 13.2712 21.0321 13.1429 21.0321 13.0048C21.0322 12.8771 21.0526 12.7542 21.0984 12.6367C21.1443 12.5242 21.2058 12.4216 21.2874 12.3398C21.369 12.2581 21.4664 12.192 21.5734 12.1409C21.6855 12.0899 21.8031 12.0697 21.9356 12.0697ZM26.1175 12.0697C26.2602 12.0697 26.3931 12.0893 26.5103 12.1251C26.6326 12.1609 26.7346 12.2225 26.8161 12.3042L26.6677 12.5546C26.5913 12.4883 26.5098 12.4376 26.4233 12.4121C26.3366 12.3865 26.2499 12.3705 26.1531 12.3705C26.0716 12.3705 25.9949 12.3864 25.9235 12.417C25.8471 12.4477 25.7858 12.4885 25.7246 12.5447C25.6685 12.6009 25.6226 12.6678 25.592 12.7446C25.5615 12.8211 25.5406 12.9078 25.5406 13.0048C25.5406 13.102 25.5563 13.1892 25.592 13.271C25.6277 13.3477 25.6735 13.4147 25.7296 13.4709C25.7856 13.527 25.857 13.5679 25.9334 13.5985C26.0099 13.6292 26.0971 13.6441 26.1838 13.6441C26.2907 13.644 26.3872 13.6235 26.4737 13.5827C26.5604 13.5418 26.6322 13.486 26.6934 13.4145L26.8567 13.6391C26.7802 13.7363 26.6781 13.8136 26.5608 13.8647C26.4385 13.9158 26.3105 13.9409 26.1729 13.9409C26.0304 13.9409 25.9031 13.9205 25.786 13.8746C25.6689 13.8287 25.5667 13.7673 25.4852 13.6856C25.4036 13.6039 25.3372 13.5063 25.2863 13.3888C25.2404 13.2711 25.214 13.1429 25.214 13.0048C25.214 12.8771 25.2345 12.7542 25.2803 12.6367C25.3262 12.5242 25.3877 12.4217 25.4693 12.3398C25.5509 12.2581 25.6483 12.192 25.7553 12.1409C25.8675 12.0898 25.985 12.0697 26.1175 12.0697ZM41.7387 12.0697C41.8814 12.0697 42.0143 12.0893 42.1316 12.1251C42.2538 12.1609 42.3558 12.2225 42.4373 12.3042L42.2889 12.5546C42.2125 12.4883 42.131 12.4376 42.0445 12.4121C41.9578 12.3865 41.8712 12.3705 41.7743 12.3705C41.6927 12.3705 41.6161 12.3863 41.5447 12.417C41.4683 12.4477 41.407 12.4885 41.3458 12.5447C41.2897 12.6009 41.2438 12.6678 41.2132 12.7446C41.1827 12.8211 41.1618 12.9079 41.1618 13.0048C41.1618 13.102 41.1775 13.1892 41.2132 13.271C41.2489 13.3477 41.2947 13.4146 41.3508 13.4709C41.4068 13.527 41.4783 13.5679 41.5546 13.5985C41.6311 13.6292 41.7183 13.6441 41.805 13.6441C41.912 13.644 42.0093 13.6236 42.0959 13.5827C42.1823 13.5419 42.2536 13.4858 42.3146 13.4145L42.4779 13.6391C42.4014 13.7363 42.2993 13.8136 42.182 13.8647C42.0597 13.9158 41.9317 13.9409 41.7941 13.9409C41.6516 13.9409 41.5243 13.9205 41.4072 13.8746C41.29 13.8287 41.1879 13.7673 41.1064 13.6856C41.0197 13.6039 40.9584 13.5063 40.9075 13.3888C40.8616 13.2711 40.8362 13.1429 40.8362 13.0048C40.8362 12.8771 40.8567 12.7542 40.9025 12.6367C40.9484 12.5243 41.009 12.4216 41.0905 12.3398C41.1721 12.258 41.2695 12.192 41.3765 12.1409C41.4887 12.0898 41.6061 12.0697 41.7387 12.0697ZM29.7432 12.0637C29.8554 12.0637 29.9628 12.0842 30.0648 12.1251C30.1668 12.166 30.2536 12.2227 30.33 12.2943C30.4063 12.3658 30.4623 12.4526 30.5082 12.5546C30.554 12.6567 30.5744 12.7696 30.5745 12.8871C30.5745 12.9687 30.5689 13.0405 30.5537 13.1018H29.1723C29.1875 13.2703 29.2484 13.4036 29.3603 13.4956C29.4725 13.5877 29.6213 13.6391 29.7947 13.6391C29.9118 13.6391 30.0187 13.6236 30.1104 13.5827C30.2072 13.5469 30.2838 13.5012 30.3399 13.4501L30.4468 13.7005C30.3602 13.7822 30.2533 13.8387 30.1361 13.8796C30.0137 13.9205 29.8962 13.936 29.7789 13.936C29.631 13.936 29.5033 13.9157 29.386 13.8697C29.2688 13.8237 29.1668 13.7615 29.0852 13.6797C29.0038 13.598 28.9371 13.5012 28.8912 13.3838C28.8453 13.2662 28.8249 13.1379 28.8249 12.9999C28.8249 12.8721 28.8455 12.7493 28.8863 12.6317C28.9271 12.5192 28.9889 12.4167 29.0654 12.3349C29.1418 12.2533 29.2385 12.187 29.3504 12.136C29.4626 12.0848 29.5953 12.0637 29.7432 12.0637ZM37.7607 11.3176C37.7046 11.3892 37.6427 11.4403 37.5816 11.471C37.5154 11.5016 37.4491 11.522 37.3728 11.5373C37.2963 11.5526 37.2149 11.5685 37.1283 11.5838C37.0416 11.5991 36.9491 11.6298 36.8522 11.6758C36.7658 11.7116 36.6994 11.7629 36.6434 11.8292C36.5875 11.8905 36.5465 11.9622 36.5108 12.0439C36.4752 12.1206 36.4499 12.2076 36.4347 12.2894C36.4194 12.3711 36.4041 12.4579 36.399 12.5447H36.4089C36.4395 12.4833 36.4757 12.4224 36.5267 12.3764C36.5777 12.3253 36.6286 12.2838 36.6949 12.2428C36.756 12.2071 36.8225 12.1762 36.8938 12.1558C36.965 12.1354 37.0412 12.1251 37.1174 12.1251C37.2449 12.1251 37.3577 12.1455 37.4648 12.1864C37.5668 12.2274 37.6536 12.2889 37.725 12.3656C37.7964 12.4423 37.8526 12.5402 37.8883 12.6476C37.929 12.7549 37.9437 12.8778 37.9437 13.0157C37.9437 13.1383 37.9233 13.2556 37.8774 13.368C37.8315 13.4805 37.771 13.5781 37.6894 13.6599C37.6079 13.7417 37.5106 13.8077 37.3985 13.8588C37.2864 13.9099 37.164 13.931 37.0264 13.931C36.8785 13.931 36.7508 13.905 36.6336 13.8539C36.5163 13.8027 36.4193 13.7262 36.3377 13.6342C36.2561 13.537 36.1946 13.419 36.1487 13.2809C36.1029 13.1429 36.0824 12.9895 36.0824 12.8158C36.0824 12.6829 36.0928 12.5444 36.1081 12.4012C36.1234 12.2582 36.1541 12.1203 36.2051 11.9875C36.2561 11.8546 36.3173 11.7367 36.404 11.6293C36.4906 11.522 36.6027 11.4403 36.7454 11.379C36.8474 11.3329 36.9448 11.3023 37.0264 11.2869C37.113 11.2716 37.1898 11.2607 37.256 11.2454C37.322 11.2351 37.3831 11.2153 37.4391 11.1949C37.4951 11.1745 37.5466 11.1286 37.5924 11.0673L37.7607 11.3176ZM34.0983 12.0637C34.3533 12.0637 34.5267 12.1259 34.6287 12.2537C34.7306 12.3815 34.782 12.56 34.7821 12.795V13.8954H34.4862V13.6648C34.4352 13.7313 34.3641 13.7929 34.2725 13.844C34.1807 13.8951 34.0631 13.9201 33.9152 13.9202C33.7522 13.9202 33.6194 13.8747 33.5174 13.7777C33.4154 13.6805 33.364 13.5419 33.364 13.368C33.3641 13.276 33.3798 13.1992 33.4155 13.1226C33.4512 13.0511 33.4969 12.9894 33.558 12.9435C33.6192 12.8975 33.6912 12.8621 33.7727 12.8366C33.8542 12.8111 33.9461 12.801 34.0429 12.801C34.1091 12.801 34.1859 12.8104 34.2725 12.8257C34.3538 12.841 34.4251 12.8719 34.4862 12.9177C34.4862 12.8361 34.4815 12.7596 34.4714 12.6882C34.4612 12.6166 34.4455 12.5602 34.415 12.509C34.3895 12.4579 34.3433 12.422 34.2923 12.3913C34.2362 12.3658 34.165 12.3507 34.0785 12.3507C33.9663 12.3507 33.8738 12.3608 33.8024 12.3863C33.7312 12.4119 33.6599 12.4426 33.5887 12.4784L33.5016 12.228C33.5832 12.1769 33.6706 12.1358 33.7777 12.1102C33.8795 12.0796 33.9863 12.0638 34.0983 12.0637ZM38.7195 12.6416H39.0154C39.153 12.6417 39.2651 12.6573 39.3568 12.6931C39.4486 12.7289 39.5196 12.7754 39.5706 12.8316C39.6266 12.8879 39.6628 12.9539 39.6883 13.0305C39.7087 13.1073 39.724 13.1844 39.724 13.2611C39.7239 13.3427 39.7137 13.4191 39.6883 13.4956C39.6628 13.5723 39.6217 13.6391 39.5656 13.7005C39.5095 13.7618 39.4329 13.8082 39.336 13.844C39.2393 13.8797 39.1222 13.9003 38.9847 13.9004H38.4029V12.1053H38.7195V12.6416ZM47.1397 12.6416H47.4356C47.5731 12.6417 47.6853 12.6573 47.777 12.6931C47.8688 12.7289 47.9398 12.7754 47.9907 12.8316C48.0468 12.8879 48.083 12.9539 48.1085 13.0305C48.1289 13.1073 48.1441 13.1844 48.1441 13.2611C48.1441 13.3427 48.1339 13.4192 48.1085 13.4956C48.083 13.5723 48.0419 13.6391 47.9858 13.7005C47.9297 13.7618 47.8531 13.8082 47.7562 13.844C47.6595 13.8797 47.5423 13.9003 47.4049 13.9004H46.828V12.1053H47.1397V12.6416ZM23.4041 13.4402L24.4392 12.1053H24.7559V13.8954H24.4392V12.5605L23.4091 13.8954H23.0875V12.1053H23.4041V13.4402ZM28.6468 12.422H27.9887V13.8954H27.6731V12.422H27.02V12.1053H28.6468V12.422ZM40.3771 13.8954H40.0604V12.1053H40.3771V13.8954ZM44.268 12.422H43.61V13.8954H43.2943V12.422H42.6412V12.1053H44.268V12.422ZM48.7972 13.8954H48.4806V12.1053H48.7972V13.8954ZM50.0975 12.7802L50.5923 12.1053H50.9594L50.3222 12.9692L51 13.8954H50.6121L50.0876 13.1691L49.5572 13.8954H49.1901L49.863 12.985L49.2257 12.1053H49.6126L50.0975 12.7802ZM32.9108 13.8895H32.5942V12.5862L31.9767 13.4194H31.9668L31.3246 12.5862V13.8895H31.0079V12.1053H31.2939L31.9767 12.99L32.6298 12.1004H32.9108V13.8895ZM37.0363 12.4378C36.9496 12.4378 36.873 12.4528 36.8067 12.4784C36.7406 12.5039 36.6796 12.5395 36.6237 12.5803C36.5727 12.6211 36.5267 12.6727 36.4911 12.7238C36.4554 12.7647 36.4341 12.8208 36.4188 12.8821C36.4188 12.9997 36.4347 13.1026 36.4653 13.1998C36.4958 13.2914 36.5363 13.373 36.587 13.4343C36.638 13.5007 36.7048 13.5519 36.776 13.5877C36.8524 13.6234 36.929 13.644 37.0155 13.6441C37.1022 13.6441 37.1846 13.6292 37.256 13.5985C37.3271 13.5679 37.3882 13.5219 37.4391 13.4709C37.4901 13.4146 37.5312 13.3525 37.5618 13.2809C37.5922 13.2095 37.6072 13.1279 37.6073 13.0464C37.6073 12.8725 37.5567 12.7235 37.4598 12.611C37.3629 12.4934 37.2199 12.4378 37.0363 12.4378ZM34.0835 13.0662C34.0377 13.0662 33.9868 13.0717 33.941 13.0869C33.8951 13.0972 33.854 13.1179 33.8183 13.1384C33.7826 13.164 33.7515 13.1947 33.7312 13.2304C33.7109 13.2662 33.7005 13.3121 33.7005 13.363C33.7005 13.45 33.7265 13.5167 33.7826 13.5679C33.8387 13.6087 33.9152 13.6391 34.0221 13.6391C34.1394 13.6391 34.2316 13.6141 34.3081 13.5629C34.3793 13.5119 34.4403 13.4606 34.4862 13.4095V13.1839C34.374 13.1022 34.2415 13.0662 34.0835 13.0662ZM45.4466 12.3606C45.3396 12.3606 45.2424 12.386 45.1507 12.4319C45.0589 12.4779 44.9871 12.5396 44.931 12.606V13.4956C45.0126 13.5467 45.0891 13.5881 45.1655 13.6035C45.2419 13.6239 45.3235 13.6341 45.405 13.6342C45.5019 13.6342 45.5888 13.6185 45.6653 13.5827C45.7417 13.552 45.8082 13.5063 45.8592 13.4501C45.9102 13.3939 45.9513 13.322 45.9819 13.2453C46.0124 13.1636 46.0274 13.0768 46.0275 12.985C46.0275 12.893 46.0173 12.8104 45.9918 12.7337C45.9664 12.6572 45.9308 12.5909 45.88 12.5348C45.829 12.4785 45.7674 12.4378 45.696 12.4071C45.6196 12.3765 45.5382 12.3607 45.4466 12.3606ZM38.7195 13.5985H38.9491C39.107 13.5985 39.2193 13.5726 39.2856 13.5164C39.3518 13.4602 39.3826 13.3783 39.3826 13.271C39.3825 13.1637 39.3518 13.0818 39.2856 13.0256C39.2193 12.9694 39.107 12.9435 38.9541 12.9435H38.7195V13.5985ZM47.1397 13.5985H47.3693C47.5272 13.5985 47.6395 13.5726 47.7058 13.5164C47.7719 13.4602 47.8027 13.3783 47.8027 13.271C47.8027 13.1637 47.7719 13.0818 47.7058 13.0256C47.6395 12.9694 47.5271 12.9435 47.3742 12.9435H47.1397V13.5985ZM29.7225 12.3606C29.5597 12.3607 29.4274 12.4066 29.3306 12.4932C29.2337 12.5853 29.1717 12.6985 29.1564 12.8366H30.243C30.2328 12.6883 30.1872 12.5702 30.0955 12.4833C30.0037 12.4066 29.8755 12.3606 29.7225 12.3606ZM2.46302 11.7312L5.11405 10.1974L2.46302 8.66361V11.7312ZM23.4091 4.44412C24.2353 4.44923 24.8169 4.67936 25.4238 5.11405L24.74 6.35199C24.74 6.35199 24.1078 5.92766 23.3071 5.9532C22.7921 5.9532 22.1083 6.38733 22.0979 7.1951C22.0979 7.98778 22.7871 8.43799 23.3022 8.43799C24.1197 8.45318 24.7348 8.0427 24.74 8.03919L25.4337 9.29693C24.8626 9.75201 24.1233 9.99285 23.3992 9.98269C21.7571 9.97247 20.3902 8.71973 20.3899 7.20104C20.3899 5.90206 21.619 4.44412 23.4091 4.44412ZM31.2583 4.30558C31.2583 4.30558 29.8 4.30558 29.6057 4.30558C28.7693 4.30558 28.0197 4.87419 27.9125 5.73846C28.3614 5.31911 29.055 5.06853 29.769 5.06853C31.11 5.07376 32.0946 6.21336 32.1152 7.37916C32.1407 8.89804 30.9162 9.98269 29.1822 9.98269C27.54 9.98265 26.1531 8.98497 26.1531 6.55584C26.1533 4.49506 27.4688 2.79257 29.4117 2.76187C30.2634 2.76187 32.1152 2.75692 32.1152 2.75692L31.2583 4.30558ZM38.4543 9.82931H36.6177V6.1521H34.8533V9.82931H33.0177V4.5975H38.4543V9.82931ZM29.1921 6.38762C28.57 6.38784 28.0805 6.89936 28.0907 7.5078C28.0909 8.15184 28.6619 8.58622 29.1564 8.58642C29.7888 8.58642 30.2835 8.1106 30.2835 7.49691C30.2834 6.89359 29.8192 6.38762 29.1921 6.38762ZM10.0421 7.34848L12.6941 5.81466L10.0421 4.28084V7.34848Z" fill="#D8D8D8"/>
</g>
<defs>
<clipPath id="clip0_332_5852">
<rect width="50.3302" height="20.1321" fill="white" transform="scale(1.01331)"/>
</clipPath>
</defs>
</svg>
