<svg width="20" height="20" viewBox="0 0 20 20" fill="none" xmlns="http://www.w3.org/2000/svg">
<path d="M2.50781 5.00057L5.00781 1.66724H15.0078L17.5078 5.00057M2.50781 5.00057V16.6672C2.50781 17.1093 2.68341 17.5332 2.99597 17.8457C3.30853 18.1583 3.73245 18.3339 4.17448 18.3339H15.8411C16.2832 18.3339 16.7071 18.1583 17.0197 17.8457C17.3322 17.5332 17.5078 17.1093 17.5078 16.6672V5.00057M2.50781 5.00057H17.5078M13.3411 8.3339C13.3411 9.21796 12.99 10.0658 12.3648 10.6909C11.7397 11.316 10.8919 11.6672 10.0078 11.6672C9.12376 11.6672 8.27591 11.316 7.65079 10.6909C7.02567 10.0658 6.67448 9.21796 6.67448 8.3339" stroke="#3C3C50" stroke-width="1.5" stroke-linecap="round" stroke-linejoin="round"/>
</svg>
