<svg width="50" height="50" viewBox="0 0 50 50" fill="none" xmlns="http://www.w3.org/2000/svg">
<rect width="50" height="50" rx="25" fill="#3C3C50"/>
<path d="M17.5 20L20 16.6666H30L32.5 20M17.5 20V31.6666C17.5 32.1087 17.6756 32.5326 17.9882 32.8451C18.3007 33.1577 18.7246 33.3333 19.1667 33.3333H30.8333C31.2754 33.3333 31.6993 33.1577 32.0118 32.8451C32.3244 32.5326 32.5 32.1087 32.5 31.6666V20M17.5 20H32.5M28.3333 23.3333C28.3333 24.2173 27.9821 25.0652 27.357 25.6903C26.7319 26.3154 25.8841 26.6666 25 26.6666C24.1159 26.6666 23.2681 26.3154 22.643 25.6903C22.0179 25.0652 21.6667 24.2173 21.6667 23.3333" stroke="white" stroke-width="1.5" stroke-linecap="round" stroke-linejoin="round"/>
</svg>
