<svg width="11" height="11" viewBox="0 0 11 11" fill="none" xmlns="http://www.w3.org/2000/svg">
<path d="M5.5 0C8.53757 0 11 2.46243 11 5.5C11 8.53757 8.53757 11 5.5 11C2.46243 11 0 8.53757 0 5.5C0 2.46243 2.46243 0 5.5 0ZM5.25488 4.14062V8.7832H5.74512V4.14062H5.25488ZM5.50293 1.83301C5.29899 1.83321 5.13379 2.07178 5.13379 2.36719C5.13379 2.67213 5.29899 2.90117 5.50293 2.90137C5.70061 2.90137 5.86621 2.67225 5.86621 2.36719C5.86621 2.07166 5.70061 1.83301 5.50293 1.83301Z" fill="white"/>
</svg>
