<svg width="18" height="18" viewBox="0 0 18 18" fill="none" xmlns="http://www.w3.org/2000/svg">
<path d="M8.00144 0.286283L0.803893 4.92016C0.0934934 5.37754 -0.131105 6.20644 0.0773425 6.87347C0.28579 7.54052 0.94696 8.10518 1.80114 8.10518H2.39879V15.0543H1.19998C0.535191 15.0543 0 15.5708 0 16.2125C0 16.8541 0.535192 17.3707 1.19998 17.3707H16.7997C17.4645 17.3707 17.9997 16.8541 17.9997 16.2125C17.9997 15.5708 17.4645 15.0543 16.7997 15.0543H15.5974V8.10518H16.1997C17.0539 8.10518 17.7139 7.54052 17.9224 6.87347C18.1308 6.20644 17.9062 5.37754 17.1958 4.92016L9.99828 0.286283C9.69409 0.0903947 9.3382 -0.00399758 8.97759 0.000129648C8.63064 0.0041006 8.29175 0.0994559 8.00144 0.286283ZM4.79758 8.10518H5.99873V15.0543H4.79758V8.10518ZM8.39752 8.10518H9.59867V15.0543H8.39752V8.10518ZM11.9975 8.10518H13.1986V15.0543H11.9975V8.10518Z" fill="#D8D8D8"/>
</svg>
