<svg width="15" height="15" viewBox="0 0 15 15" fill="none" xmlns="http://www.w3.org/2000/svg">
<path d="M8.47547 2.33249L9.46547 4.31249C9.60047 4.58249 9.96047 4.85249 10.2605 4.89749L12.053 5.19749C13.2005 5.39249 13.4705 6.21749 12.6455 7.04249L11.2505 8.44499C11.018 8.67749 10.883 9.13499 10.958 9.46499L11.3555 11.1975C11.6705 12.5625 10.943 13.095 9.73547 12.3825L8.05547 11.385C7.74797 11.205 7.25297 11.205 6.94547 11.385L5.25797 12.375C4.05047 13.0875 3.32297 12.555 3.63797 11.19L4.03547 9.45749C4.11047 9.13499 3.97547 8.67749 3.74297 8.43749L2.35547 7.04999C1.53047 6.22499 1.80047 5.39249 2.94797 5.20499L4.74047 4.90499C5.04047 4.85249 5.40047 4.58999 5.53547 4.31999L6.52547 2.33999C7.05797 1.25999 7.94297 1.25999 8.47547 2.33249Z" fill="#F9B429"/>
</svg>
